<svg version="1.1" id="Layer_1" xmlns="http://www.w3.org/2000/svg" xmlns:xlink="http://www.w3.org/1999/xlink" x="0px" y="0px"
	 width="100%" viewBox="0 0 1094 300" enable-background="new 0 0 1094 300" xml:space="preserve">
<path fill="#FFFFFF" opacity="1.000000" stroke="none" 
	d="
M793.000000,301.000000 
	C528.666687,301.000000 264.833344,301.000000 1.000000,301.000000 
	C1.000000,201.000000 1.000000,101.000000 1.000000,1.000000 
	C365.666656,1.000000 730.333313,1.000000 1095.000000,1.000000 
	C1095.000000,101.000000 1095.000000,201.000000 1095.000000,301.000000 
	C994.500000,301.000000 894.000000,301.000000 793.000000,301.000000 
M679.000000,216.498108 
	C679.000000,207.406418 679.000000,198.314713 679.000000,189.000076 
	C685.303101,189.000076 690.963562,189.244965 696.592834,188.931168 
	C702.214905,188.617767 707.855896,188.032150 713.401306,187.065445 
	C732.399231,183.753601 748.493591,171.957596 750.515747,149.510620 
	C752.726746,124.967575 740.705139,107.474983 717.909119,101.950142 
	C695.620483,96.548256 672.929504,99.999336 650.260864,98.848839 
	C650.260864,143.861038 650.260864,188.243195 650.260864,232.703873 
	C659.916138,232.703873 669.308105,232.703873 679.000000,232.703873 
	C679.000000,227.440521 679.000000,222.468552 679.000000,216.498108 
M1053.400757,143.896042 
	C1056.909302,140.122910 1060.417847,136.349777 1064.463867,131.998749 
	C1053.703247,131.998749 1044.035889,131.891556 1034.375122,132.097565 
	C1032.635864,132.134644 1030.430542,133.008057 1029.277222,134.263947 
	C1019.371216,145.051743 1009.660767,156.019043 999.882874,166.924591 
	C998.514771,168.450455 997.097656,169.932297 994.806213,172.400787 
	C994.806213,143.723236 994.806213,116.487198 994.806213,89.356133 
	C985.295532,89.356133 976.232544,89.356133 967.216797,89.356133 
	C967.216797,137.322815 967.216797,184.931671 967.216797,232.745026 
	C976.496033,232.745026 985.556580,232.745026 995.001282,232.745026 
	C995.001282,224.698013 994.948120,216.901306 995.045471,209.106476 
	C995.065247,207.523788 995.153748,205.525970 996.068115,204.445236 
	C999.354919,200.560745 1003.009033,196.987122 1006.742554,193.066895 
	C1008.164917,194.873169 1009.322510,196.260300 1010.390869,197.713058 
	C1018.273499,208.431808 1026.111206,219.183792 1034.045654,229.863953 
	C1034.962769,231.098572 1036.367554,232.826767 1037.578491,232.853271 
	C1048.292114,233.087784 1059.013184,232.989441 1070.685547,232.989441 
	C1055.060913,212.657272 1040.100342,193.189224 1025.024170,173.570847 
	C1034.503418,163.651825 1043.702271,154.026154 1053.400757,143.896042 
M70.620651,111.147781 
	C83.161224,100.884384 80.536430,86.924683 80.362801,73.065811 
	C76.701294,73.065811 73.586533,73.065811 69.938339,73.065811 
	C69.938339,68.267868 70.037567,63.812515 69.912399,59.363476 
	C69.766739,54.186050 66.668022,51.301384 61.655994,51.427746 
	C56.876129,51.548256 54.063282,54.354427 53.946575,59.351814 
	C53.842648,63.801922 53.924751,68.256378 53.924751,72.858658 
	C50.130955,72.858658 46.894348,72.858658 43.168278,72.858658 
	C43.168278,68.625114 43.181931,64.664291 43.165150,60.703602 
	C43.138481,54.409039 40.692432,51.494576 35.405571,51.421623 
	C30.195116,51.349724 27.353825,54.501030 27.270294,60.557011 
	C27.213871,64.647697 27.259533,68.739807 27.259533,73.285538 
	C23.441006,73.285538 20.352253,73.285538 16.831654,73.285538 
	C16.831654,78.551262 17.019814,83.359306 16.795666,88.148064 
	C16.173120,101.448326 22.698414,110.328957 34.133305,115.898537 
	C37.179241,117.382118 38.091911,118.935921 38.070461,122.203369 
	C37.920635,145.029663 38.041496,167.857544 37.967602,190.684570 
	C37.936752,200.213684 42.266903,207.278854 50.718643,210.931824 
	C55.896019,213.169586 61.877342,213.979767 67.579414,214.460068 
	C74.483635,215.041611 81.474205,214.597992 88.302223,214.597992 
	C92.968201,239.061340 118.228699,246.491486 133.753387,243.333008 
	C134.046692,218.983017 155.709854,203.776596 179.479752,203.368149 
	C200.150345,203.012924 226.330963,215.770859 227.416931,244.803391 
	C267.597351,244.803391 307.783478,244.803391 347.900635,244.803391 
	C352.666443,219.568481 367.518188,205.293320 389.886139,203.871918 
	C402.401154,203.076660 414.073853,205.307419 424.492035,212.580429 
	C435.368927,220.173645 441.618927,230.415039 441.459198,244.012711 
	C451.238251,244.012711 460.414398,244.437271 469.534058,243.901154 
	C480.035126,243.283813 486.863464,235.501434 486.930756,225.109146 
	C486.975006,218.278015 487.081085,211.442047 486.888519,204.615891 
	C486.639526,195.790039 483.424500,188.110565 477.302002,181.681900 
	C467.204559,171.079437 454.651245,166.210373 440.207703,166.022507 
	C428.379486,165.868668 416.546143,165.876312 404.718201,166.040070 
	C398.907013,166.120514 394.130066,164.261429 389.677948,160.531052 
	C371.037079,144.912094 352.265289,129.449127 333.510315,113.966743 
	C325.487396,107.343773 316.040558,104.249321 305.814880,104.211357 
	C263.826630,104.055489 221.837189,104.067825 179.848785,104.203148 
	C169.786423,104.235580 160.402115,107.166458 152.554810,113.668503 
	C133.956833,129.078247 115.630836,144.818253 96.932060,160.103226 
	C90.825348,165.095047 87.999786,170.914246 88.349022,178.683441 
	C88.614616,184.591782 88.401726,190.521622 88.401726,196.831161 
	C80.981171,196.831161 74.344826,196.849548 67.708618,196.826202 
	C60.527920,196.800949 59.176880,195.480515 59.172989,188.452530 
	C59.161266,167.291489 59.355221,146.127609 59.034046,124.971458 
	C58.956387,119.856216 59.845306,116.476662 65.097229,114.879974 
	C66.920044,114.325806 68.425636,112.728264 70.620651,111.147781 
M814.345215,234.072067 
	C820.959717,230.364822 827.574219,226.657578 834.044067,223.031403 
	C835.842773,228.244278 838.387878,231.413712 843.446228,231.949509 
	C851.460754,232.798416 859.550903,232.933578 867.705322,233.375961 
	C867.705322,225.070724 867.705322,217.679901 867.705322,209.814240 
	C863.684692,209.814240 859.946350,209.814240 856.403442,209.814240 
	C856.185547,209.184052 856.088867,209.034683 856.088440,208.885056 
	C856.054688,196.399384 856.101624,183.913010 855.984680,171.428162 
	C855.804382,152.187668 845.897217,137.375488 829.421692,132.115723 
	C818.312561,128.569153 806.943115,128.180283 795.485352,130.511383 
	C786.836243,132.271057 778.531982,134.782410 771.349182,140.470734 
	C773.980042,146.531525 776.477661,152.285400 779.145325,158.430969 
	C789.060791,152.536484 799.390503,150.252563 810.474121,151.037460 
	C821.614624,151.826385 828.738525,159.514069 827.405762,169.998245 
	C821.970459,169.998245 816.442139,169.522079 811.030090,170.112274 
	C803.327271,170.952255 795.398621,171.630630 788.111572,174.032318 
	C760.907166,182.998459 761.084534,215.864197 776.220581,227.911560 
	C787.419312,236.825043 800.213196,237.326004 814.345215,234.072067 
M884.999939,162.500000 
	C884.999939,185.916687 884.999939,209.333359 884.999939,232.645065 
	C894.704956,232.645065 903.765076,232.645065 913.000061,232.645065 
	C913.000061,231.135529 912.999146,229.980865 913.000122,228.826202 
	C913.013794,212.500732 912.857239,196.172791 913.093262,179.850540 
	C913.298340,165.665543 923.100769,156.160156 937.164856,156.008865 
	C941.370239,155.963623 945.576477,156.001877 949.999695,156.001877 
	C949.999695,149.133698 950.166504,141.973816 949.852844,134.835037 
	C949.793274,133.479355 948.045898,131.378845 946.711121,131.032333 
	C938.609436,128.929062 930.601135,130.060745 923.860962,134.827148 
	C918.773193,138.425018 914.708435,143.469467 910.058228,147.996796 
	C910.058228,142.985214 910.058228,137.624985 910.058228,132.297684 
	C901.436096,132.297684 893.365295,132.297684 884.999939,132.297684 
	C884.999939,142.228546 884.999939,151.864273 884.999939,162.500000 
M595.000122,202.500000 
	C595.000122,212.592606 595.000122,222.685211 595.000122,232.631638 
	C604.727417,232.631638 613.789917,232.631638 622.998596,232.631638 
	C622.998596,203.943481 623.104919,175.622528 622.939880,147.303146 
	C622.883484,137.631821 618.856628,132.920853 609.295593,132.231567 
	C599.727234,131.541779 590.070374,132.080109 580.258179,132.080109 
	C580.258179,139.834976 580.258179,147.227997 580.258179,155.105988 
	C585.240601,155.105988 589.982849,155.105988 595.000122,155.105988 
	C595.000122,170.893326 595.000122,186.196655 595.000122,202.500000 
M367.702362,221.169327 
	C352.844635,233.827438 353.589447,253.148300 367.690918,264.893036 
	C381.045258,276.015564 402.199005,277.038330 416.720978,267.327026 
	C426.076599,261.070618 431.817261,252.625717 430.850189,241.028870 
	C429.894196,229.564804 423.212036,221.640457 413.103210,216.866089 
	C397.531036,209.511398 382.475403,210.795425 367.702362,221.169327 
M157.784836,266.771118 
	C172.089096,275.897400 186.958130,276.513336 201.829895,268.734589 
	C212.047287,263.390350 218.694260,254.747803 218.477921,242.812103 
	C218.259460,230.759796 211.480225,222.254532 200.883133,216.974030 
	C188.362305,210.734940 175.593216,210.677338 162.868042,216.488541 
	C140.842941,226.546799 138.020676,251.574783 157.784836,266.771118 
M617.757812,117.419701 
	C618.248291,116.972809 618.768188,116.553925 619.224854,116.074776 
	C624.775085,110.250778 625.528992,102.328636 621.135803,96.116364 
	C616.331726,89.323120 606.784546,87.092110 598.844055,90.907089 
	C592.268127,94.066460 588.872498,101.528488 590.700928,108.802185 
	C593.493652,119.912064 605.976685,124.187065 617.757812,117.419701 
z"/>
<path fill="#0070C0" opacity="1.000000" stroke="none" 
	d="
M679.000000,216.997345 
	C679.000000,222.468552 679.000000,227.440521 679.000000,232.703873 
	C669.308105,232.703873 659.916138,232.703873 650.260864,232.703873 
	C650.260864,188.243195 650.260864,143.861038 650.260864,98.848839 
	C672.929504,99.999336 695.620483,96.548256 717.909119,101.950142 
	C740.705139,107.474983 752.726746,124.967575 750.515747,149.510620 
	C748.493591,171.957596 732.399231,183.753601 713.401306,187.065445 
	C707.855896,188.032150 702.214905,188.617767 696.592834,188.931168 
	C690.963562,189.244965 685.303101,189.000076 679.000000,189.000076 
	C679.000000,198.314713 679.000000,207.406418 679.000000,216.997345 
M715.837891,157.358978 
	C726.294861,146.060272 721.885986,129.411057 706.854919,126.259064 
	C697.952332,124.392204 688.519836,125.052162 679.319702,124.575607 
	C679.319702,137.986740 679.319702,150.370560 679.319702,162.986206 
	C686.610168,162.986206 693.660461,163.626022 700.525574,162.773956 
	C705.578430,162.146820 710.389038,159.568787 715.837891,157.358978 
z"/>
<path fill="#0171C0" opacity="1.000000" stroke="none" 
	d="
M1053.151001,144.148254 
	C1043.702271,154.026154 1034.503418,163.651825 1025.024170,173.570847 
	C1040.100342,193.189224 1055.060913,212.657272 1070.685547,232.989441 
	C1059.013184,232.989441 1048.292114,233.087784 1037.578491,232.853271 
	C1036.367554,232.826767 1034.962769,231.098572 1034.045654,229.863953 
	C1026.111206,219.183792 1018.273499,208.431808 1010.390869,197.713058 
	C1009.322510,196.260300 1008.164917,194.873169 1006.742554,193.066895 
	C1003.009033,196.987122 999.354919,200.560745 996.068115,204.445236 
	C995.153748,205.525970 995.065247,207.523788 995.045471,209.106476 
	C994.948120,216.901306 995.001282,224.698013 995.001282,232.745026 
	C985.556580,232.745026 976.496033,232.745026 967.216797,232.745026 
	C967.216797,184.931671 967.216797,137.322815 967.216797,89.356133 
	C976.232544,89.356133 985.295532,89.356133 994.806213,89.356133 
	C994.806213,116.487198 994.806213,143.723236 994.806213,172.400787 
	C997.097656,169.932297 998.514771,168.450455 999.882874,166.924591 
	C1009.660767,156.019043 1019.371216,145.051743 1029.277222,134.263947 
	C1030.430542,133.008057 1032.635864,132.134644 1034.375122,132.097565 
	C1044.035889,131.891556 1053.703247,131.998749 1064.463867,131.998749 
	C1060.417847,136.349777 1056.909302,140.122910 1053.151001,144.148254 
z"/>
<path fill="#07AEEB" opacity="1.000000" stroke="none" 
	d="
M70.348381,111.377518 
	C68.425636,112.728264 66.920044,114.325806 65.097229,114.879974 
	C59.845306,116.476662 58.956387,119.856216 59.034046,124.971458 
	C59.355221,146.127609 59.161266,167.291489 59.172989,188.452530 
	C59.176880,195.480515 60.527920,196.800949 67.708618,196.826202 
	C74.344826,196.849548 80.981171,196.831161 88.401726,196.831161 
	C88.401726,190.521622 88.614616,184.591782 88.349022,178.683441 
	C87.999786,170.914246 90.825348,165.095047 96.932060,160.103226 
	C115.630836,144.818253 133.956833,129.078247 152.554810,113.668503 
	C160.402115,107.166458 169.786423,104.235580 179.848785,104.203148 
	C221.837189,104.067825 263.826630,104.055489 305.814880,104.211357 
	C316.040558,104.249321 325.487396,107.343773 333.510315,113.966743 
	C352.265289,129.449127 371.037079,144.912094 389.677948,160.531052 
	C394.130066,164.261429 398.907013,166.120514 404.718201,166.040070 
	C416.546143,165.876312 428.379486,165.868668 440.207703,166.022507 
	C454.651245,166.210373 467.204559,171.079437 477.302002,181.681900 
	C483.424500,188.110565 486.639526,195.790039 486.888519,204.615891 
	C487.081085,211.442047 486.975006,218.278015 486.930756,225.109146 
	C486.863464,235.501434 480.035126,243.283813 469.534058,243.901154 
	C460.414398,244.437271 451.238251,244.012711 441.459198,244.012711 
	C441.618927,230.415039 435.368927,220.173645 424.492035,212.580429 
	C414.073853,205.307419 402.401154,203.076660 389.886139,203.871918 
	C367.518188,205.293320 352.666443,219.568481 347.900635,244.803391 
	C307.783478,244.803391 267.597351,244.803391 227.416931,244.803391 
	C226.330963,215.770859 200.150345,203.012924 179.479752,203.368149 
	C155.709854,203.776596 134.046692,218.983017 133.753387,243.333008 
	C118.228699,246.491486 92.968201,239.061340 88.302223,214.597992 
	C81.474205,214.597992 74.483635,215.041611 67.579414,214.460068 
	C61.877342,213.979767 55.896019,213.169586 50.718643,210.931824 
	C42.266903,207.278854 37.936752,200.213684 37.967602,190.684570 
	C38.041496,167.857544 37.920635,145.029663 38.070461,122.203369 
	C38.091911,118.935921 37.179241,117.382118 34.133305,115.898537 
	C22.698414,110.328957 16.173120,101.448326 16.795666,88.148064 
	C17.019814,83.359306 16.831654,78.551262 16.831654,73.285538 
	C20.352253,73.285538 23.441006,73.285538 27.259533,73.285538 
	C27.259533,68.739807 27.213871,64.647697 27.270294,60.557011 
	C27.353825,54.501030 30.195116,51.349724 35.405571,51.421623 
	C40.692432,51.494576 43.138481,54.409039 43.165150,60.703602 
	C43.181931,64.664291 43.168278,68.625114 43.168278,72.858658 
	C46.894348,72.858658 50.130955,72.858658 53.924751,72.858658 
	C53.924751,68.256378 53.842648,63.801922 53.946575,59.351814 
	C54.063282,54.354427 56.876129,51.548256 61.655994,51.427746 
	C66.668022,51.301384 69.766739,54.186050 69.912399,59.363476 
	C70.037567,63.812515 69.938339,68.267868 69.938339,73.065811 
	C73.586533,73.065811 76.701294,73.065811 80.362801,73.065811 
	C80.536430,86.924683 83.161224,100.884384 70.348381,111.377518 
M269.500000,108.844063 
	C240.509781,108.844063 211.518005,109.017555 182.530121,108.757698 
	C171.115540,108.655388 161.434067,112.140640 152.800125,119.502724 
	C135.310043,134.416336 117.710922,149.204315 100.006538,163.862671 
	C95.651382,167.468536 93.626747,171.617569 93.788368,177.239960 
	C94.012093,185.022919 93.844536,192.817123 93.844536,200.932983 
	C82.930084,200.932983 72.480865,201.198593 62.055569,200.814728 
	C57.241917,200.637497 53.990398,196.564682 53.972942,191.610062 
	C53.886066,166.951904 53.887836,142.293030 54.038479,117.635490 
	C54.046581,116.309441 55.400333,114.257217 56.612690,113.782982 
	C75.068245,106.563896 76.634361,94.968483 74.373459,77.754868 
	C71.305420,77.754868 68.190125,77.754868 64.881027,77.754868 
	C64.709427,76.309700 64.470886,75.183792 64.459854,74.055672 
	C64.410965,69.057808 64.568504,64.051910 64.307213,59.066959 
	C64.251556,58.005219 62.757896,57.018852 61.926735,55.997761 
	C61.019871,56.973709 59.709686,57.810219 59.311497,58.962021 
	C58.847176,60.305092 59.170238,61.923729 59.168694,63.422810 
	C59.163811,68.159592 59.166889,72.896370 59.166889,77.599327 
	C51.692707,77.599327 45.090538,77.599327 37.995338,77.599327 
	C37.995338,71.746254 38.179020,66.116806 37.876633,60.513592 
	C37.792534,58.955196 36.268871,57.474487 35.405636,55.958138 
	C34.512722,57.451954 32.934929,58.907799 32.849632,60.446388 
	C32.538891,66.051552 32.726887,71.684364 32.726887,77.786156 
	C28.957323,77.786156 25.717203,77.786156 22.005423,77.786156 
	C22.005423,81.721146 21.975304,85.179825 22.010902,88.637817 
	C22.131969,100.398056 27.600399,108.897385 38.584896,112.740845 
	C42.711285,114.184669 43.253712,116.282982 43.232712,119.979286 
	C43.102089,142.970917 43.143997,165.963684 43.177734,188.956009 
	C43.192211,198.822495 46.927189,205.038422 55.353153,208.111511 
	C58.851376,209.387344 62.796902,209.809418 66.558807,209.915070 
	C75.488770,210.165878 84.430550,209.995789 93.223923,209.995789 
	C97.319496,230.385941 111.453552,241.746445 128.468414,238.860931 
	C132.258713,212.694336 156.128082,200.157196 176.617889,199.031113 
	C191.105194,198.234909 204.270203,202.174194 215.816345,211.064056 
	C225.490204,218.512344 231.126678,228.345917 232.363388,240.650757 
	C269.339203,240.650757 305.949768,240.650757 342.515503,240.650757 
	C350.678162,214.205383 367.126434,200.271301 391.406189,199.166183 
	C403.507996,198.615356 414.931732,201.117905 425.315796,207.428986 
	C437.452515,214.805252 445.174225,225.359726 446.862244,239.833115 
	C453.071350,239.833115 458.728119,239.833603 464.384857,239.832687 
	C465.384491,239.832520 466.388428,239.885574 467.383118,239.813904 
	C476.317932,239.170227 481.366547,233.879852 481.431488,225.034058 
	C481.477936,218.703171 481.349915,212.370071 481.460876,206.040787 
	C481.647552,195.391922 477.066956,187.042175 469.020325,180.521301 
	C461.446136,174.383209 452.651642,170.899384 442.884338,170.622803 
	C429.903107,170.255234 416.908051,170.103699 403.923187,170.246368 
	C397.051392,170.321854 391.389740,168.278244 386.125153,163.853745 
	C367.637665,148.316437 348.952423,133.014618 330.353973,117.609230 
	C322.988678,111.508453 314.512970,108.752373 304.988403,108.823708 
	C293.492859,108.909805 281.996185,108.844040 269.500000,108.844063 
z"/>
<path fill="#0171C0" opacity="1.000000" stroke="none" 
	d="
M813.938599,234.134949 
	C800.213196,237.326004 787.419312,236.825043 776.220581,227.911560 
	C761.084534,215.864197 760.907166,182.998459 788.111572,174.032318 
	C795.398621,171.630630 803.327271,170.952255 811.030090,170.112274 
	C816.442139,169.522079 821.970459,169.998245 827.405762,169.998245 
	C828.738525,159.514069 821.614624,151.826385 810.474121,151.037460 
	C799.390503,150.252563 789.060791,152.536484 779.145325,158.430969 
	C776.477661,152.285400 773.980042,146.531525 771.349182,140.470734 
	C778.531982,134.782410 786.836243,132.271057 795.485352,130.511383 
	C806.943115,128.180283 818.312561,128.569153 829.421692,132.115723 
	C845.897217,137.375488 855.804382,152.187668 855.984680,171.428162 
	C856.101624,183.913010 856.054688,196.399384 856.088440,208.885056 
	C856.088867,209.034683 856.185547,209.184052 856.403442,209.814240 
	C859.946350,209.814240 863.684692,209.814240 867.705322,209.814240 
	C867.705322,217.679901 867.705322,225.070724 867.705322,233.375961 
	C859.550903,232.933578 851.460754,232.798416 843.446228,231.949509 
	C838.387878,231.413712 835.842773,228.244278 834.044067,223.031403 
	C827.574219,226.657578 820.959717,230.364822 813.938599,234.134949 
M824.307556,207.690979 
	C828.528259,201.714661 828.431213,195.060654 827.592224,187.464554 
	C818.910339,188.044235 810.428650,188.105011 802.119690,189.333984 
	C796.061890,190.229996 793.106323,194.792938 792.996948,200.702957 
	C792.861633,208.018738 795.295288,212.194702 801.664795,214.043182 
	C810.068420,216.482010 817.784607,215.271606 824.307556,207.690979 
z"/>
<path fill="#0070C0" opacity="1.000000" stroke="none" 
	d="
M884.999939,162.000000 
	C884.999939,151.864273 884.999939,142.228546 884.999939,132.297684 
	C893.365295,132.297684 901.436096,132.297684 910.058228,132.297684 
	C910.058228,137.624985 910.058228,142.985214 910.058228,147.996796 
	C914.708435,143.469467 918.773193,138.425018 923.860962,134.827148 
	C930.601135,130.060745 938.609436,128.929062 946.711121,131.032333 
	C948.045898,131.378845 949.793274,133.479355 949.852844,134.835037 
	C950.166504,141.973816 949.999695,149.133698 949.999695,156.001877 
	C945.576477,156.001877 941.370239,155.963623 937.164856,156.008865 
	C923.100769,156.160156 913.298340,165.665543 913.093262,179.850540 
	C912.857239,196.172791 913.013794,212.500732 913.000122,228.826202 
	C912.999146,229.980865 913.000061,231.135529 913.000061,232.645065 
	C903.765076,232.645065 894.704956,232.645065 884.999939,232.645065 
	C884.999939,209.333359 884.999939,185.916687 884.999939,162.000000 
z"/>
<path fill="#0070C0" opacity="1.000000" stroke="none" 
	d="
M595.000122,202.000000 
	C595.000122,186.196655 595.000122,170.893326 595.000122,155.105988 
	C589.982849,155.105988 585.240601,155.105988 580.258179,155.105988 
	C580.258179,147.227997 580.258179,139.834976 580.258179,132.080109 
	C590.070374,132.080109 599.727234,131.541779 609.295593,132.231567 
	C618.856628,132.920853 622.883484,137.631821 622.939880,147.303146 
	C623.104919,175.622528 622.998596,203.943481 622.998596,232.631638 
	C613.789917,232.631638 604.727417,232.631638 595.000122,232.631638 
	C595.000122,222.685211 595.000122,212.592606 595.000122,202.000000 
z"/>
<path fill="#08AEEA" opacity="1.000000" stroke="none" 
	d="
M367.997314,220.966309 
	C382.475403,210.795425 397.531036,209.511398 413.103210,216.866089 
	C423.212036,221.640457 429.894196,229.564804 430.850189,241.028870 
	C431.817261,252.625717 426.076599,261.070618 416.720978,267.327026 
	C402.199005,277.038330 381.045258,276.015564 367.690918,264.893036 
	C353.589447,253.148300 352.844635,233.827438 367.997314,220.966309 
M417.360901,260.890015 
	C428.796051,249.236053 428.322327,234.147644 416.213348,224.339661 
	C404.918701,215.191269 386.699310,214.285339 374.535431,222.267258 
	C358.063263,233.076263 358.091553,252.751709 374.393127,263.851410 
	C384.661591,270.843201 404.063812,272.305603 417.360901,260.890015 
z"/>
<path fill="#07AEEB" opacity="1.000000" stroke="none" 
	d="
M157.498108,266.553284 
	C138.020676,251.574783 140.842941,226.546799 162.868042,216.488541 
	C175.593216,210.677338 188.362305,210.734940 200.883133,216.974030 
	C211.480225,222.254532 218.259460,230.759796 218.477921,242.812103 
	C218.694260,254.747803 212.047287,263.390350 201.829895,268.734589 
	C186.958130,276.513336 172.089096,275.897400 157.498108,266.553284 
M159.490295,262.079163 
	C171.480392,270.951263 184.448471,271.803101 197.615326,265.639648 
	C207.077713,261.210266 213.324966,253.695663 213.052734,242.566071 
	C212.787292,231.714874 206.309402,224.914032 197.119019,220.265366 
	C190.499390,216.917023 183.351196,216.052170 176.194717,217.182983 
	C164.543777,219.023941 154.913315,224.275436 150.935394,236.219620 
	C147.554016,246.372589 151.138504,254.779602 159.490295,262.079163 
z"/>
<path fill="#0372C1" opacity="1.000000" stroke="none" 
	d="
M617.457886,117.641281 
	C605.976685,124.187065 593.493652,119.912064 590.700928,108.802185 
	C588.872498,101.528488 592.268127,94.066460 598.844055,90.907089 
	C606.784546,87.092110 616.331726,89.323120 621.135803,96.116364 
	C625.528992,102.328636 624.775085,110.250778 619.224854,116.074776 
	C618.768188,116.553925 618.248291,116.972809 617.457886,117.641281 
z"/>
<path fill="#FDFEFF" opacity="1.000000" stroke="none" 
	d="
M715.572754,157.609528 
	C710.389038,159.568787 705.578430,162.146820 700.525574,162.773956 
	C693.660461,163.626022 686.610168,162.986206 679.319702,162.986206 
	C679.319702,150.370560 679.319702,137.986740 679.319702,124.575607 
	C688.519836,125.052162 697.952332,124.392204 706.854919,126.259064 
	C721.885986,129.411057 726.294861,146.060272 715.572754,157.609528 
z"/>
<path fill="#000202" opacity="1.000000" stroke="none" 
	d="
M270.000000,108.844040 
	C281.996185,108.844040 293.492859,108.909805 304.988403,108.823708 
	C314.512970,108.752373 322.988678,111.508453 330.353973,117.609230 
	C348.952423,133.014618 367.637665,148.316437 386.125153,163.853745 
	C391.389740,168.278244 397.051392,170.321854 403.923187,170.246368 
	C416.908051,170.103699 429.903107,170.255234 442.884338,170.622803 
	C452.651642,170.899384 461.446136,174.383209 469.020325,180.521301 
	C477.066956,187.042175 481.647552,195.391922 481.460876,206.040787 
	C481.349915,212.370071 481.477936,218.703171 481.431488,225.034058 
	C481.366547,233.879852 476.317932,239.170227 467.383118,239.813904 
	C466.388428,239.885574 465.384491,239.832520 464.384857,239.832687 
	C458.728119,239.833603 453.071350,239.833115 446.862244,239.833115 
	C445.174225,225.359726 437.452515,214.805252 425.315796,207.428986 
	C414.931732,201.117905 403.507996,198.615356 391.406189,199.166183 
	C367.126434,200.271301 350.678162,214.205383 342.515503,240.650757 
	C305.949768,240.650757 269.339203,240.650757 232.363388,240.650757 
	C231.126678,228.345917 225.490204,218.512344 215.816345,211.064056 
	C204.270203,202.174194 191.105194,198.234909 176.617889,199.031113 
	C156.128082,200.157196 132.258713,212.694336 128.468414,238.860931 
	C111.453552,241.746445 97.319496,230.385941 93.223923,209.995789 
	C84.430550,209.995789 75.488770,210.165878 66.558807,209.915070 
	C62.796902,209.809418 58.851376,209.387344 55.353153,208.111511 
	C46.927189,205.038422 43.192211,198.822495 43.177734,188.956009 
	C43.143997,165.963684 43.102089,142.970917 43.232712,119.979286 
	C43.253712,116.282982 42.711285,114.184669 38.584896,112.740845 
	C27.600399,108.897385 22.131969,100.398056 22.010902,88.637817 
	C21.975304,85.179825 22.005423,81.721146 22.005423,77.786156 
	C25.717203,77.786156 28.957323,77.786156 32.726887,77.786156 
	C32.726887,71.684364 32.538891,66.051552 32.849632,60.446388 
	C32.934929,58.907799 34.512722,57.451954 35.405636,55.958138 
	C36.268871,57.474487 37.792534,58.955196 37.876633,60.513592 
	C38.179020,66.116806 37.995338,71.746254 37.995338,77.599327 
	C45.090538,77.599327 51.692707,77.599327 59.166889,77.599327 
	C59.166889,72.896370 59.163811,68.159592 59.168694,63.422810 
	C59.170238,61.923729 58.847176,60.305092 59.311497,58.962021 
	C59.709686,57.810219 61.019871,56.973709 61.926735,55.997761 
	C62.757896,57.018852 64.251556,58.005219 64.307213,59.066959 
	C64.568504,64.051910 64.410965,69.057808 64.459854,74.055672 
	C64.470886,75.183792 64.709427,76.309700 64.881027,77.754868 
	C68.190125,77.754868 71.305420,77.754868 74.373459,77.754868 
	C76.634361,94.968483 75.068245,106.563896 56.612690,113.782982 
	C55.400333,114.257217 54.046581,116.309441 54.038479,117.635490 
	C53.887836,142.293030 53.886066,166.951904 53.972942,191.610062 
	C53.990398,196.564682 57.241917,200.637497 62.055569,200.814728 
	C72.480865,201.198593 82.930084,200.932983 93.844536,200.932983 
	C93.844536,192.817123 94.012093,185.022919 93.788368,177.239960 
	C93.626747,171.617569 95.651382,167.468536 100.006538,163.862671 
	C117.710922,149.204315 135.310043,134.416336 152.800125,119.502724 
	C161.434067,112.140640 171.115540,108.655388 182.530121,108.757698 
	C211.518005,109.017555 240.509781,108.844063 270.000000,108.844040 
M320.500000,170.159454 
	C338.391998,170.159454 356.283997,170.159454 374.345703,170.159454 
	C374.080902,169.371765 374.073578,168.992874 373.882751,168.833176 
	C357.043884,154.737320 340.347626,140.462418 323.204468,126.746132 
	C319.839386,124.053726 314.772156,122.310188 310.439758,122.205368 
	C289.483368,121.698357 268.509827,121.895195 247.542358,121.870155 
	C246.782852,121.869255 246.022995,122.157326 245.379547,122.287247 
	C245.379547,138.354080 245.379547,154.084686 245.379547,170.159500 
	C270.290192,170.159500 294.895081,170.159500 320.500000,170.159454 
M198.500015,121.830788 
	C191.675339,121.875961 184.850113,121.995384 178.026123,121.945679 
	C171.037506,121.894775 165.138794,124.357239 159.826218,128.843689 
	C144.947845,141.408478 129.951843,153.833969 115.006874,166.319946 
	C113.804871,167.324173 112.638069,168.370560 111.014587,169.779449 
	C152.609360,169.779449 193.413116,169.779449 234.236633,169.779449 
	C234.236633,153.651291 234.236633,137.915146 234.236633,121.830734 
	C222.442612,121.830734 210.971329,121.830734 198.500015,121.830788 
z"/>
<path fill="#FCFDFE" opacity="1.000000" stroke="none" 
	d="
M824.087280,207.985138 
	C817.784607,215.271606 810.068420,216.482010 801.664795,214.043182 
	C795.295288,212.194702 792.861633,208.018738 792.996948,200.702957 
	C793.106323,194.792938 796.061890,190.229996 802.119690,189.333984 
	C810.428650,188.105011 818.910339,188.044235 827.592224,187.464554 
	C828.431213,195.060654 828.528259,201.714661 824.087280,207.985138 
z"/>
<path fill="#000102" opacity="1.000000" stroke="none" 
	d="
M417.099518,261.140930 
	C404.063812,272.305603 384.661591,270.843201 374.393127,263.851410 
	C358.091553,252.751709 358.063263,233.076263 374.535431,222.267258 
	C386.699310,214.285339 404.918701,215.191269 416.213348,224.339661 
	C428.322327,234.147644 428.796051,249.236053 417.099518,261.140930 
z"/>
<path fill="#000102" opacity="1.000000" stroke="none" 
	d="
M159.195282,261.872742 
	C151.138504,254.779602 147.554016,246.372589 150.935394,236.219620 
	C154.913315,224.275436 164.543777,219.023941 176.194717,217.182983 
	C183.351196,216.052170 190.499390,216.917023 197.119019,220.265366 
	C206.309402,224.914032 212.787292,231.714874 213.052734,242.566071 
	C213.324966,253.695663 207.077713,261.210266 197.615326,265.639648 
	C184.448471,271.803101 171.480392,270.951263 159.195282,261.872742 
z"/>
<path fill="#05B0EE" opacity="1.000000" stroke="none" 
	d="
M320.000000,170.159485 
	C294.895081,170.159500 270.290192,170.159500 245.379547,170.159500 
	C245.379547,154.084686 245.379547,138.354080 245.379547,122.287247 
	C246.022995,122.157326 246.782852,121.869255 247.542358,121.870155 
	C268.509827,121.895195 289.483368,121.698357 310.439758,122.205368 
	C314.772156,122.310188 319.839386,124.053726 323.204468,126.746132 
	C340.347626,140.462418 357.043884,154.737320 373.882751,168.833176 
	C374.073578,168.992874 374.080902,169.371765 374.345703,170.159454 
	C356.283997,170.159454 338.391998,170.159454 320.000000,170.159485 
M256.577515,165.994675 
	C291.591522,165.994675 326.605560,165.994675 361.619568,165.994675 
	C347.361664,152.898163 332.920166,140.668991 318.076782,128.948868 
	C315.503082,126.916710 311.239685,126.335869 307.738678,126.283127 
	C290.428802,126.022369 273.112854,126.164276 255.799026,126.164200 
	C254.199036,126.164192 252.599030,126.164192 250.896912,126.164192 
	C250.896912,139.768906 250.896912,152.666016 250.896912,165.994644 
	C252.662704,165.994644 254.128082,165.994644 256.577515,165.994675 
z"/>
<path fill="#03ADEA" opacity="1.000000" stroke="none" 
	d="
M199.000031,121.830765 
	C210.971329,121.830734 222.442612,121.830734 234.236633,121.830734 
	C234.236633,137.915146 234.236633,153.651291 234.236633,169.779449 
	C193.413116,169.779449 152.609360,169.779449 111.014587,169.779449 
	C112.638069,168.370560 113.804871,167.324173 115.006874,166.319946 
	C129.951843,153.833969 144.947845,141.408478 159.826218,128.843689 
	C165.138794,124.357239 171.037506,121.894775 178.026123,121.945679 
	C184.850113,121.995384 191.675339,121.875961 199.000031,121.830765 
M211.498596,126.157684 
	C201.176285,126.157768 190.853943,126.168213 180.531647,126.154228 
	C173.802338,126.145111 167.981003,128.106567 162.743256,132.649078 
	C151.428711,142.461746 139.781845,151.891052 128.285950,161.495117 
	C126.846687,162.697540 125.497971,164.008347 123.740944,165.601044 
	C159.340698,165.601044 194.161026,165.601044 228.778320,165.601044 
	C228.778320,152.300476 228.778320,139.401688 228.778320,126.157768 
	C223.102600,126.157768 217.800232,126.157768 211.498596,126.157684 
z"/>
<path fill="#FDFEFF" opacity="1.000000" stroke="none" 
	d="
M256.085480,165.994659 
	C254.128082,165.994644 252.662704,165.994644 250.896912,165.994644 
	C250.896912,152.666016 250.896912,139.768906 250.896912,126.164192 
	C252.599030,126.164192 254.199036,126.164192 255.799026,126.164200 
	C273.112854,126.164276 290.428802,126.022369 307.738678,126.283127 
	C311.239685,126.335869 315.503082,126.916710 318.076782,128.948868 
	C332.920166,140.668991 347.361664,152.898163 361.619568,165.994675 
	C326.605560,165.994675 291.591522,165.994675 256.085480,165.994659 
z"/>
<path fill="#FDFEFF" opacity="1.000000" stroke="none" 
	d="
M211.998230,126.157730 
	C217.800232,126.157768 223.102600,126.157768 228.778320,126.157768 
	C228.778320,139.401688 228.778320,152.300476 228.778320,165.601044 
	C194.161026,165.601044 159.340698,165.601044 123.740944,165.601044 
	C125.497971,164.008347 126.846687,162.697540 128.285950,161.495117 
	C139.781845,151.891052 151.428711,142.461746 162.743256,132.649078 
	C167.981003,128.106567 173.802338,126.145111 180.531647,126.154228 
	C190.853943,126.168213 201.176285,126.157768 211.998230,126.157730 
z"/>
</svg>